<?xml version="1.0" encoding="utf-8"?>
<!-- Generator: Adobe Illustrator 26.0.3, SVG Export Plug-In . SVG Version: 6.00 Build 0)  -->
<svg version="1.1" xmlns="http://www.w3.org/2000/svg" xmlns:xlink="http://www.w3.org/1999/xlink" x="0px" y="0px"
	 viewBox="0 0 694.96 380.97" style="enable-background:new 0 0 694.96 380.97;" xml:space="preserve">
<style type="text/css">
	.st0{fill:#231F20;}
	.st1{fill:none;}
</style>
<g id="Layer_1">
</g>
<g id="Layer_2">
	<g>
		<g>
			<path d="M200.14,9.91l76.97,45.19l101.85-25.09C378.96,30.01,249.94-20.92,200.14,9.91z"/>
			<path d="M686.8,50.77l-55.9,15.19c-13.8,3.45-29.68,0.69-35.87-7.58c-5.28-7.05,4.74-17.62,15.29-20.22l48.12-11.85
				C607.55,4.37,528.6,24.9,528.6,24.9l-394.35,98.81L7.65,73.87L0,80.35l77.28,91.18L31.44,182.8l5.92,17.1
				c91.72,29.75,219.47,3.36,219.47,3.36l50.21-12.37l-63.09,172.53c0,0,15.7,56.9,91.16-34.27l123.06-175.48l214.07-52.73
				C709.58,85.97,690.5,58.68,686.8,50.77z"/>
		</g>
	</g>
</g>
</svg>
