<?xml version="1.0" encoding="utf-8"?>
<!-- Generator: Adobe Illustrator 26.0.3, SVG Export Plug-In . SVG Version: 6.00 Build 0)  -->
<svg version="1.1" xmlns="http://www.w3.org/2000/svg" xmlns:xlink="http://www.w3.org/1999/xlink" x="0px" y="0px"
	 viewBox="0 0 566.16 420.46" style="enable-background:new 0 0 566.16 420.46;" xml:space="preserve">
<style type="text/css">
	.st0{fill:#231F20;}
	.st1{fill:none;}
</style>
<g id="Layer_1">
</g>
<g id="Layer_2">
	<g>
		<path d="M152.63,222.52c-27.16,0-49.26-22.1-49.26-49.26c0-27.16,22.1-49.25,49.26-49.25c27.16,0,49.25,22.1,49.25,49.25
			C201.88,200.43,179.79,222.52,152.63,222.52z"/>
		<g>
			<path d="M489.47,420.46c-2.12,0-3.85-1.72-3.85-3.84v-84.98c0-4.58-3.71-8.3-8.3-8.3H88.83c-4.58,0-8.3,3.71-8.3,8.3v84.98
				c0,2.12-1.72,3.84-3.84,3.84H3.85c-2.12,0-3.85-1.72-3.85-3.84V3.85C0,1.73,1.73,0,3.85,0h72.84c2.12,0,3.84,1.73,3.84,3.85
				v230.67c0,4.58,3.71,8.3,8.3,8.3h473.48c2.12,0,3.85,1.72,3.85,3.84v169.97c0,2.12-1.73,3.84-3.85,3.84H489.47z"/>
			<path d="M232.22,217.85c-1.33,0-2.42-1.09-2.42-2.42v-76.47c0-1.34,1.09-2.42,2.42-2.42h255.04c43.5,0,78.89,35.39,78.89,78.89
				c0,1.34-1.09,2.42-2.42,2.42H232.22z"/>
		</g>
	</g>
</g>
</svg>
