<?xml version="1.0" encoding="utf-8"?>
<!-- Generator: Adobe Illustrator 26.0.3, SVG Export Plug-In . SVG Version: 6.00 Build 0)  -->
<svg version="1.1" xmlns="http://www.w3.org/2000/svg" xmlns:xlink="http://www.w3.org/1999/xlink" x="0px" y="0px"
	 viewBox="0 0 399.85 336.91" style="enable-background:new 0 0 399.85 336.91;" xml:space="preserve">
<style type="text/css">
	.st0{fill:#231F20;}
	.st1{fill:none;}
</style>
<g id="Layer_1">
</g>
<g id="Layer_2">
	<g>
		<g>
			<path d="M56.95,311.81c0,13.85,13.76,25.09,30.72,25.09c16.95,0,30.7-11.24,30.7-25.09v-25.75H56.95V311.81z"/>
			<path d="M281.49,311.81c0,13.85,13.75,25.09,30.72,25.09c16.94,0,30.7-11.24,30.7-25.09v-25.75h-61.42V311.81z"/>
		</g>
		<g>
			<path class="st1" d="M296.64,77.25c-2.51-7.07-11.97-13.74-19.47-13.74H122.68c-7.5,0-16.96,6.67-19.47,13.74l-22,61.91h237.42
				L296.64,77.25z"/>
			<path d="M348.79,140.23c-0.14-0.42-0.22-0.82-0.37-1.23l-25.29-71.17c-6.47-18.19-26.66-32.45-45.96-32.45h-25.86
				c0-0.02,0.01-0.04,0.01-0.05v-8.01C251.32,12.28,239.03,0,224,0h-48.16c-15.01,0-27.31,12.28-27.31,27.31v8.01
				c0,0.02,0.01,0.03,0.01,0.05h-25.87c-19.32,0-39.51,14.26-45.97,32.45l-25.28,71.17c-0.14,0.41-0.24,0.81-0.36,1.23
				c-14.08,3.64-24.57,16.44-24.57,31.61v63.21c0,17.97,14.7,32.68,32.67,32.68h281.51c17.97,0,32.68-14.71,32.68-32.68v-63.21
				C373.37,156.67,362.87,143.86,348.79,140.23z M103.21,77.25c2.51-7.07,11.97-13.74,19.47-13.74h154.49
				c7.5,0,16.95,6.67,19.47,13.74l22,61.91H81.21L103.21,77.25z M83.99,207.15c-15.71,0-28.46-9.82-28.46-21.94
				c0-12.12,12.74-21.95,28.46-21.95c15.7,0,31.7,20.4,31.7,32.52C115.69,207.9,99.7,207.15,83.99,207.15z M237.67,232.85h-75.48
				c-5.32,0-9.63-4.33-9.63-9.65c0-5.32,4.31-9.63,9.63-9.63h75.48c5.32,0,9.63,4.32,9.63,9.63
				C247.3,228.52,242.99,232.85,237.67,232.85z M315.86,207.15c-15.71,0-31.71,0.75-31.71-11.37c0-12.13,16-32.52,31.71-32.52
				c15.71,0,28.45,9.83,28.45,21.95C344.31,197.33,331.57,207.15,315.86,207.15z"/>
		</g>
		<g>
			<path d="M399.8,117.66c0.53,4.98-3.1,9.5-8.08,10.04l-25.19,2.72c-4.97,0.53-9.49-3.1-10.03-8.07l-1.55-14.37
				c-0.54-4.97,3.1-9.49,8.07-10.03l25.2-2.72c4.97-0.55,9.49,3.1,10.03,8.06L399.8,117.66z"/>
			<path d="M0.05,117.66c-0.53,4.98,3.1,9.5,8.07,10.04l25.18,2.72c4.98,0.53,9.49-3.1,10.04-8.07l1.55-14.37
				c0.54-4.97-3.1-9.49-8.07-10.03l-25.19-2.72c-4.98-0.55-9.49,3.1-10.03,8.06L0.05,117.66z"/>
		</g>
	</g>
</g>
</svg>
