<?xml version="1.0" encoding="utf-8"?>
<!-- Generator: Adobe Illustrator 26.0.3, SVG Export Plug-In . SVG Version: 6.00 Build 0)  -->
<svg version="1.1" xmlns="http://www.w3.org/2000/svg" xmlns:xlink="http://www.w3.org/1999/xlink" x="0px" y="0px"
	 viewBox="0 0 497.48 497.48" style="enable-background:new 0 0 497.48 497.48;" xml:space="preserve">
<style type="text/css">
	.st0{fill:#231F20;}
	.st1{fill:none;}
</style>
<g id="Layer_1">
</g>
<g id="Layer_2">
	<path class="st0" d="M348.01,177.97c0,54.82-44.44,99.27-99.27,99.27s-99.27-44.44-99.27-99.27s44.44-99.27,99.27-99.27
		S348.01,123.14,348.01,177.97z M497.48,248.74c0,16.87-1.7,33.73-5.05,50.11c-3.27,15.98-8.15,31.69-14.5,46.71
		c-6.24,14.74-13.95,28.96-22.94,42.26c-8.9,13.17-19.11,25.55-30.36,36.8c-4.26,4.26-8.69,8.38-13.26,12.33
		c-7.49,6.48-15.36,12.51-23.54,18.04c-13.3,8.98-27.52,16.7-42.26,22.94c-15.02,6.35-30.73,11.23-46.71,14.5
		c-16.39,3.35-33.25,5.05-50.11,5.05s-33.73-1.7-50.11-5.05c-15.98-3.27-31.69-8.15-46.71-14.5c-14.74-6.24-28.96-13.95-42.26-22.94
		c-8.18-5.53-16.05-11.56-23.54-18.04c-4.57-3.95-9-8.07-13.26-12.33c-11.25-11.25-21.47-23.64-30.36-36.8
		c-8.98-13.3-16.7-27.52-22.94-42.26c-6.35-15.02-11.23-30.73-14.5-46.71C1.7,282.47,0,265.61,0,248.74s1.7-33.73,5.05-50.11
		c3.27-15.98,8.15-31.69,14.5-46.71c6.24-14.74,13.95-28.96,22.94-42.26c8.9-13.17,19.11-25.55,30.36-36.8
		c11.25-11.25,23.64-21.47,36.8-30.36c13.3-8.98,27.52-16.7,42.26-22.94c15.02-6.35,30.73-11.23,46.71-14.5
		C215.01,1.7,231.87,0,248.74,0s33.73,1.7,50.11,5.05c15.98,3.27,31.69,8.15,46.71,14.5c14.74,6.24,28.96,13.95,42.26,22.94
		c13.17,8.9,25.55,19.11,36.8,30.36c11.25,11.25,21.47,23.64,30.36,36.8c8.98,13.3,16.7,27.52,22.94,42.26
		c6.35,15.02,11.23,30.73,14.5,46.71C495.78,215.01,497.48,231.87,497.48,248.74z M466.15,248.74
		c0-119.88-97.53-217.41-217.41-217.41S31.33,128.86,31.33,248.74c0,56.97,22.03,108.9,58.01,147.71
		c10.29-57.14,44.25-96.08,89.86-115c6.42-2.66,13.74-2.14,19.68,1.46c3.95,2.39,8.07,4.5,12.36,6.31
		c11.88,5.03,24.5,7.58,37.5,7.58c13,0,25.61-2.55,37.5-7.58c4.29-1.82,8.42-3.92,12.36-6.31c5.95-3.6,13.26-4.13,19.68-1.46
		c45.61,18.92,79.56,57.86,89.86,115C444.13,357.64,466.15,305.71,466.15,248.74z"/>
</g>
</svg>
